<svg xmlns="http://www.w3.org/2000/svg" width="21.485" height="21.485" viewBox="0 0 21.485 21.485">
  <path id="boxes" d="M13.876,13.428h3.581v1.79H13.876Zm7.609-.9v8.952H0V12.533A2.689,2.689,0,0,1,2.686,9.847h1.79V2.686A2.689,2.689,0,0,1,7.162,0h7.162a2.689,2.689,0,0,1,2.686,2.686V9.847H18.8A2.689,2.689,0,0,1,21.485,12.533ZM6.266,9.847h8.952V2.686a.9.9,0,0,0-.9-.9H7.162a.9.9,0,0,0-.9.9ZM1.79,19.695H9.847V11.638H2.686a.9.9,0,0,0-.9.9Zm17.9-7.162a.9.9,0,0,0-.9-.9H11.638v8.057h8.057Zm-15.666.9v1.79H7.609v-1.79ZM8.952,5.371h3.581V3.581H8.952Z" fill="#befff9"/>
</svg>
