<?xml version="1.0" encoding="iso-8859-1"?>
<!-- Uploaded to: SVG Repo, www.svgrepo.com, Generator: SVG Repo Mixer Tools -->
<svg version="1.1" id="Layer_1" xmlns="http://www.w3.org/2000/svg" xmlns:xlink="http://www.w3.org/1999/xlink" 
	 viewBox="0 0 512 512" xml:space="preserve">
<polygon style="fill:#B9B9B9;" points="478.242,489.495 512,489.495 512,90.022 455.736,56.264 "/>
<polygon style="fill:#DCDCDC;" points="0,90.022 0,489.495 478.242,489.495 478.242,56.264 "/>
<polygon style="fill:#FE5F1A;" points="478.242,22.505 455.736,56.264 478.242,90.022 512,90.022 512,22.505 "/>
<polygon style="fill:#FE834D;" points="427.604,22.505 393.846,56.264 427.604,90.022 478.242,90.022 478.242,22.505 "/>
<polygon style="fill:#969696;" points="393.846,22.505 360.088,56.264 393.846,90.022 427.604,90.022 427.604,22.505 "/>
<rect y="22.505" style="fill:#B9B9B9;" width="393.846" height="67.516"/>
<polygon style="fill:#D5F6F5;" points="444.484,123.78 421.978,346.67 444.484,455.736 478.242,455.736 478.242,123.78 "/>
<rect x="33.758" y="123.78" style="fill:#FFFFFF;" width="410.725" height="331.956"/>
<circle style="fill:#272727;" cx="469.802" cy="56.264" r="8.44"/>
<polygon style="fill:#DFC136;" points="256,178.919 256,289.758 350.228,400.598 383.987,400.598 "/>
<polygon style="fill:#FEDC3D;" points="128.014,400.598 350.228,400.598 256,178.919 "/>
<g>
	<path style="fill:#4D4D4D;" d="M256,375.279c-4.661,0-8.44-3.778-8.44-8.44v-11.253c0-4.662,3.779-8.44,8.44-8.44
		c4.661,0,8.44,3.778,8.44,8.44v11.253C264.44,371.502,260.661,375.279,256,375.279z"/>
	<path style="fill:#4D4D4D;" d="M256,330.268c-4.661,0-8.44-3.778-8.44-8.44v-75.393c0-4.662,3.779-8.44,8.44-8.44
		c4.661,0,8.44,3.778,8.44,8.44v75.393C264.44,326.491,260.661,330.268,256,330.268z"/>
</g>
</svg>